# This file uses centimeters as units for non-parametric coordinates.

mtllib book.mtl
g default
v -0.129056 -1.380769 0.536267
v -0.046881 -1.390251 0.536267
v 0.307002 -1.390251 0.536267
v 0.379473 -1.390251 0.536267
v -0.129056 2.340884 0.550565
v -0.043688 2.340884 0.550301
v 0.303834 2.340884 0.543819
v 0.379473 2.340884 0.543819
v -0.129056 2.340884 0.463094
v -0.045595 2.340884 0.465041
v 0.303834 2.340884 0.465041
v 0.379473 2.340884 0.463094
v -0.129056 2.340884 0.295378
v -0.045595 2.340884 0.297325
v 0.303819 2.340884 0.300590
v 0.379743 2.340884 0.295780
v -0.125874 2.349959 0.188408
v -0.045595 2.340884 0.193536
v 0.303834 2.340884 0.193536
v 0.379600 2.340884 0.191588
v -0.129056 2.340884 -2.165777
v -0.045595 2.340884 -2.163830
v 0.303834 2.340884 -2.163830
v 0.379473 2.340884 -2.165777
v -0.129056 -1.390251 -2.165777
v -0.043179 -1.390251 -2.165777
v 0.301198 -1.390251 -2.165777
v 0.379473 -1.390251 -2.165777
v -0.129056 -1.399280 0.199315
v -0.043179 -1.390251 0.201395
v 0.301198 -1.390251 0.201396
v 0.379473 -1.390251 0.199068
v -0.129056 -1.380769 0.285070
v -0.044349 -1.390251 0.280294
v 0.301296 -1.390251 0.280294
v 0.379473 -1.390251 0.286159
v -0.129056 -1.380769 0.458075
v -0.044349 -1.390251 0.457369
v 0.301296 -1.390251 0.457369
v 0.379473 -1.390251 0.458666
v -0.045595 2.245468 0.461511
v 0.303834 2.245468 0.461511
v 0.303819 2.245468 0.301166
v -0.045595 2.245468 0.298039
v 0.303834 2.245467 0.169599
v -0.045595 2.245467 0.169600
v 0.303834 2.253516 -2.091085
v -0.045595 2.253516 -2.091085
v 0.301198 -1.302883 -2.092887
v -0.043179 -1.302883 -2.092887
v 0.301198 -1.294834 0.177074
v -0.043179 -1.294834 0.177073
v 0.301296 -1.294834 0.281338
v -0.044349 -1.294834 0.281339
v 0.301296 -1.294834 0.453605
v -0.044349 -1.294834 0.453605
vt 0.375000 0.000000
vt 0.458333 0.000000
vt 0.541667 0.000000
vt 0.625000 0.000000
vt 0.375000 0.250000
vt 0.458333 0.250000
vt 0.541667 0.250000
vt 0.625000 0.250000
vt 0.375000 0.312500
vt 0.458333 0.312500
vt 0.541667 0.312500
vt 0.625000 0.312500
vt 0.375000 0.375000
vt 0.458333 0.375000
vt 0.541667 0.375000
vt 0.625000 0.375000
vt 0.375000 0.437500
vt 0.458333 0.437500
vt 0.541667 0.437500
vt 0.625000 0.437500
vt 0.375000 0.500000
vt 0.458333 0.500000
vt 0.541667 0.500000
vt 0.625000 0.500000
vt 0.375000 0.750000
vt 0.458333 0.750000
vt 0.541667 0.750000
vt 0.625000 0.750000
vt 0.375000 0.812500
vt 0.458333 0.812500
vt 0.541667 0.812500
vt 0.625000 0.812500
vt 0.375000 0.875000
vt 0.458333 0.875000
vt 0.541667 0.875000
vt 0.625000 0.875000
vt 0.375000 0.937500
vt 0.458333 0.937500
vt 0.541667 0.937500
vt 0.625000 0.937500
vt 0.375000 1.000000
vt 0.458333 1.000000
vt 0.541667 1.000000
vt 0.625000 1.000000
vt 0.875000 0.000000
vt 0.812500 0.000000
vt 0.750000 0.000000
vt 0.687500 0.000000
vt 0.875000 0.250000
vt 0.812500 0.250000
vt 0.750000 0.250000
vt 0.687500 0.250000
vt 0.125000 0.000000
vt 0.187500 0.000000
vt 0.250000 0.000000
vt 0.312500 0.000000
vt 0.125000 0.250000
vt 0.187500 0.250000
vt 0.250000 0.250000
vt 0.312500 0.250000
vt 0.458333 0.312500
vt 0.541667 0.312500
vt 0.541667 0.375000
vt 0.458333 0.375000
vt 0.541667 0.437500
vt 0.458333 0.437500
vt 0.541667 0.500000
vt 0.458333 0.500000
vt 0.541667 0.750000
vt 0.458333 0.750000
vt 0.541667 0.812500
vt 0.458333 0.812500
vt 0.541667 0.875000
vt 0.458333 0.875000
vt 0.541667 0.937500
vt 0.458333 0.937500
vn 0.001366 -0.003802 0.999992
vn 0.007769 -0.003063 0.999965
vn 0.007726 -0.003067 0.999965
vn 0.001366 -0.003802 0.999992
vn 0.007627 -0.002741 0.999967
vn 0.007632 -0.002741 0.999967
vn 0.000000 -0.002024 0.999998
vn 0.000000 -0.002024 0.999998
vn 0.000000 1.000000 0.000000
vn 0.000000 1.000000 -0.000001
vn 0.000000 1.000000 -0.000001
vn 0.000000 1.000000 0.000000
vn 0.000000 1.000000 -0.000001
vn 0.000000 1.000000 -0.000001
vn 0.000000 1.000000 0.000000
vn 0.000000 1.000000 -0.000000
vn 0.020132 0.999661 0.016499
vn 0.020371 0.999653 0.016695
vn 0.000000 1.000000 -0.000001
vn 0.000000 1.000000 -0.000001
vn 0.000000 1.000000 -0.000002
vn 0.000000 1.000000 -0.000002
vn 0.000000 1.000000 0.000000
vn 0.000000 1.000000 -0.000000
vn 0.055330 0.998468 0.000117
vn 0.055338 0.998468 -0.000070
vn 0.000000 0.999994 0.003366
vn 0.000000 0.999994 0.003366
vn 0.000000 1.000000 0.000000
vn 0.000000 1.000000 0.000000
vn 0.055420 0.998461 -0.001960
vn 0.055420 0.998461 -0.001960
vn 0.000000 0.999994 0.003560
vn 0.000000 0.999994 0.003560
vn 0.000000 1.000000 0.000000
vn 0.000000 1.000000 0.000000
vn 0.011501 0.000265 -0.999934
vn 0.011501 0.000265 -0.999934
vn 0.011501 0.000265 -0.999934
vn 0.011501 0.000265 -0.999934
vn 0.000000 0.000507 -1.000000
vn 0.000000 0.000507 -1.000000
vn 0.000000 0.000507 -1.000000
vn 0.000000 0.000507 -1.000000
vn -0.012654 0.000265 -0.999920
vn -0.012654 0.000265 -0.999920
vn -0.012654 0.000265 -0.999920
vn -0.012654 0.000265 -0.999920
vn 0.052520 -0.998618 -0.001905
vn 0.052520 -0.998618 -0.001905
vn 0.050723 -0.998711 0.001947
vn 0.050789 -0.998708 0.001806
vn -0.000000 -0.999994 0.003546
vn -0.000000 -0.999994 0.003546
vn -0.000000 -0.999994 0.003390
vn -0.000000 -0.999994 0.003388
vn 0.000000 -1.000000 0.000000
vn 0.000000 -1.000000 0.000000
vn 0.000000 -1.000000 -0.000000
vn 0.000000 -1.000000 -0.000000
vn -0.074374 -0.996521 0.037623
vn -0.077376 -0.996403 0.034570
vn 0.000000 -1.000000 -0.000001
vn 0.000000 -1.000000 -0.000001
vn 0.000000 -1.000000 -0.000000
vn 0.000000 -1.000000 -0.000000
vn -0.048097 -0.998843 -0.000233
vn -0.111753 -0.993736 -0.000562
vn 0.000000 -1.000000 0.000000
vn 0.000000 -1.000000 0.000000
vn 0.000000 -1.000000 0.000000
vn 0.000000 -1.000000 0.000002
vn -0.022781 -0.999740 -0.000365
vn -0.112910 -0.993603 -0.001819
vn 0.000000 -1.000000 0.000002
vn 0.000000 -1.000000 0.000001
vn 1.000000 -0.000019 -0.000055
vn 1.000000 -0.000017 -0.000027
vn 1.000000 -0.000017 -0.000027
vn 1.000000 -0.000018 -0.000055
vn 1.000000 -0.000043 0.000238
vn 1.000000 -0.000043 0.000241
vn 1.000000 -0.000026 0.000543
vn 1.000000 -0.000026 0.000543
vn 1.000000 0.000000 0.000000
vn 1.000000 0.000000 0.000000
vn -1.000000 0.000426 0.000674
vn -1.000000 0.000426 0.000058
vn -1.000000 0.000426 0.000027
vn -1.000000 0.000426 0.000674
vn -0.999980 0.000163 -0.006359
vn -0.999981 0.000157 -0.006110
vn -1.000000 0.000000 0.000000
vn -1.000000 0.000000 0.000000
vn -1.000000 0.000000 0.000000
vn -1.000000 0.000000 0.000000
vn 0.000000 0.036979 -0.999316
vn 0.000000 0.036979 -0.999316
vn 0.000000 0.036979 -0.999316
vn 0.000000 0.036979 -0.999316
vn -1.000000 -0.000001 0.000092
vn -1.000000 0.000006 -0.000001
vn -1.000000 0.000006 0.000001
vn -1.000000 -0.000001 0.000092
vn 1.000000 0.000000 0.000000
vn 1.000000 0.000000 -0.000000
vn 1.000000 0.000000 -0.000000
vn 1.000000 0.000000 -0.000000
vn -1.000000 0.000001 -0.000010
vn -1.000000 0.000000 -0.000004
vn 1.000000 0.000000 0.000000
vn 1.000000 0.000000 -0.000000
vn -1.000000 0.000441 0.000000
vn -1.000000 0.000390 0.000000
vn 1.000000 0.000405 0.000000
vn 1.000000 0.000357 -0.000000
vn -1.000000 0.000441 0.000000
vn -1.000000 0.000389 0.000000
vn 1.000000 0.000404 0.000000
vn 1.000000 0.000357 0.000000
vn -1.000000 0.000008 0.000065
vn -1.000000 0.000003 0.000027
vn 1.000000 0.000095 0.000777
vn 1.000000 0.000040 0.000327
vn -1.000000 0.000045 0.000372
vn -1.000000 0.000044 0.000362
vn 0.999990 0.000543 0.004451
vn 0.999990 0.000529 0.004337
vn -1.000000 -0.000000 0.000000
vn -1.000000 -0.000000 0.000000
vn -0.000001 -0.039421 -0.999223
vn -0.000001 -0.039421 -0.999223
vn -0.000001 -0.039421 -0.999223
vn -0.000001 -0.039421 -0.999223
vn 1.000000 -0.000000 0.000000
vn 1.000000 -0.000000 0.000000
s 1
g pCube1
usemtl initialShadingGroup
f 1/1/1 2/2/2 6/6/3 5/5/4
f 2/2/2 3/3/5 7/7/6 6/6/3
f 3/3/5 4/4/7 8/8/8 7/7/6
s 2
f 5/5/9 6/6/10 10/10/11 9/9/12
f 6/6/10 7/7/13 11/11/14 10/10/11
f 7/7/13 8/8/15 12/12/16 11/11/14
f 9/9/12 10/10/11 14/14/17 13/13/18
s 3
f 41/61/19 42/62/20 43/63/21 44/64/22
s 2
f 11/11/14 12/12/16 16/16/23 15/15/24
f 13/13/18 14/14/17 18/18/25 17/17/26
s 3
f 44/64/22 43/63/21 45/65/27 46/66/28
s 2
f 15/15/24 16/16/23 20/20/29 19/19/30
f 17/17/26 18/18/25 22/22/31 21/21/32
s 3
f 46/66/28 45/65/27 47/67/33 48/68/34
s 2
f 19/19/30 20/20/29 24/24/35 23/23/36
s off
f 21/21/37 22/22/38 26/26/39 25/25/40
f 48/68/41 47/67/42 49/69/43 50/70/44
f 23/23/45 24/24/46 28/28/47 27/27/48
s 4
f 25/25/49 26/26/50 30/30/51 29/29/52
s 5
f 50/70/53 49/69/54 51/71/55 52/72/56
s 4
f 27/27/57 28/28/58 32/32/59 31/31/60
f 29/29/52 30/30/51 34/34/61 33/33/62
s 5
f 52/72/56 51/71/55 53/73/63 54/74/64
s 4
f 31/31/60 32/32/59 36/36/65 35/35/66
f 33/33/62 34/34/61 38/38/67 37/37/68
s 5
f 54/74/64 53/73/63 55/75/69 56/76/70
s 4
f 35/35/66 36/36/65 40/40/71 39/39/72
f 37/37/68 38/38/67 2/42/73 1/41/74
f 38/38/67 39/39/72 3/43/75 2/42/73
f 39/39/72 40/40/71 4/44/76 3/43/75
s 7
f 32/46/77 28/45/78 24/49/79 20/50/80
f 36/47/81 32/46/77 20/50/80 16/51/82
f 40/48/83 36/47/81 16/51/82 12/52/84
f 4/4/85 40/48/83 12/52/84 8/8/86
s 8
f 25/53/87 29/54/88 17/58/89 21/57/90
f 29/54/88 33/55/91 13/59/92 17/58/89
f 33/55/91 37/56/93 9/60/94 13/59/92
f 37/56/93 1/1/95 5/5/96 9/60/94
s off
f 10/10/97 11/11/98 42/62/99 41/61/100
s 9
f 11/11/101 15/15/102 43/63/103 42/62/104
s 10
f 14/14/105 10/10/106 41/61/107 44/64/108
s 9
f 15/15/102 19/19/109 45/65/110 43/63/103
s 10
f 18/18/111 14/14/105 44/64/108 46/66/112
s 9
f 19/19/109 23/23/113 47/67/114 45/65/110
s 10
f 22/22/115 18/18/111 46/66/112 48/68/116
s 9
f 23/23/113 27/27/117 49/69/118 47/67/114
s 10
f 26/26/119 22/22/115 48/68/116 50/70/120
s 9
f 27/27/117 31/31/121 51/71/122 49/69/118
s 10
f 30/30/123 26/26/119 50/70/120 52/72/124
s 9
f 31/31/121 35/35/125 53/73/126 51/71/122
s 10
f 34/34/127 30/30/123 52/72/124 54/74/128
s 9
f 35/35/125 39/39/129 55/75/130 53/73/126
s off
f 39/39/131 38/38/132 56/76/133 55/75/134
s 10
f 38/38/135 34/34/127 54/74/128 56/76/136
