# This file uses centimeters as units for non-parametric coordinates.

mtllib chalkboard.mtl
g default
v -5.864023 0.000000 -0.297450
v 5.014164 0.000000 -0.297450
v -5.864023 0.000000 -0.000000
v 5.014164 0.000000 -0.000000
v -6.308054 4.365417 -0.000000
v 5.727319 5.139293 -0.000000
v -6.308054 4.365417 -0.297450
v 5.727319 5.139293 -0.297450
v -5.476244 0.086659 0.016577
v 4.626385 0.086659 0.016577
v 5.339540 4.899809 0.016577
v -5.920275 4.125933 0.016577
v -5.864023 -0.000650 1.138397
v 5.014164 -0.000650 1.138397
v 5.003686 0.086008 1.137839
v -5.871839 0.086008 1.137839
v -5.476244 0.086659 -0.111112
v 4.626385 0.086659 -0.111112
v 5.339540 4.899809 -0.111112
v -5.920275 4.125933 -0.111112
vt 0.001702 0.003134
vt 0.904211 0.010965
vt 0.123240 0.076151
vt 0.898056 0.028743
vt 0.098614 0.642521
vt 0.992658 0.505728
vt 0.098093 0.661316
vt 0.986950 0.549874
vt 0.102125 0.916464
vt 0.917620 0.996484
vt 0.088490 0.994901
vt 0.054863 0.995420
vt 0.001490 0.997353
vt 0.048544 0.998008
vt 0.156319 0.128921
vt 0.870008 0.081866
vt 0.955933 0.503694
vt 0.127238 0.486132
vt 0.142997 0.092640
vt 0.882083 0.051239
vt 0.876373 0.058765
vt 0.150735 0.106527
vt 0.159028 0.136828
vt 0.867707 0.090003
vt 0.952846 0.496684
vt 0.130164 0.478304
vt 0.124011 0.006575
vt 0.048085 0.002980
vt 0.088570 0.002753
vt 0.054904 0.003151
vn 0.000000 -1.000000 0.000000
vn 0.000000 -1.000000 0.000000
vn 0.000000 -1.000000 -0.000286
vn 0.000000 -1.000000 -0.000286
vn 0.000000 0.000000 1.000000
vn 0.000000 0.000000 1.000000
vn 0.000000 0.000000 1.000000
vn 0.000000 0.000000 1.000000
vn -0.064168 0.997939 0.000000
vn -0.064168 0.997939 0.000000
vn -0.064168 0.997939 0.000000
vn -0.064168 0.997939 0.000000
vn 0.000000 0.000000 -1.000000
vn 0.000000 0.000000 -1.000000
vn 0.000000 0.000000 -1.000000
vn 0.000000 0.000000 -1.000000
vn 0.990509 -0.137448 0.000000
vn 0.990509 -0.137448 0.000000
vn 0.990509 -0.137448 0.000000
vn 0.990509 -0.137448 0.000000
vn -0.994867 -0.101194 0.000000
vn -0.994867 -0.101194 0.000000
vn -0.994867 -0.101194 0.000000
vn -0.994867 -0.101194 0.000000
vn 0.000000 0.006435 0.999979
vn 0.000000 0.006435 0.999979
vn 0.000000 0.006435 0.999979
vn 0.000000 0.006435 0.999979
vn 0.043947 -0.006298 0.999014
vn 0.019699 0.031409 0.999312
vn 0.019699 0.031409 0.999312
vn 0.043947 -0.006298 0.999014
vn -0.024123 0.032251 0.999189
vn -0.024123 0.032251 0.999189
vn -0.043615 -0.004609 0.999038
vn -0.043615 -0.004609 0.999038
vn 0.000000 -1.000000 -0.000571
vn 0.000000 -1.000000 -0.000571
vn 0.395961 0.915922 -0.065587
vn 0.134525 0.990664 -0.022086
vn 0.202280 0.978765 -0.033210
vn 0.395961 0.915922 -0.065587
vn -0.140023 0.989854 -0.024138
vn -0.210594 0.976899 -0.036304
vn -0.411449 0.908624 -0.071509
vn -0.411449 0.908624 -0.071509
vn 0.000000 1.000000 0.000000
vn 0.000000 1.000000 0.000000
vn -0.989201 0.146568 0.000000
vn -0.989201 0.146568 0.000000
vn -0.989201 0.146568 0.000000
vn -0.989201 0.146568 0.000000
vn 0.068567 -0.997647 0.000000
vn 0.068567 -0.997647 0.000000
vn 0.068567 -0.997647 0.000000
vn 0.068567 -0.997647 0.000000
vn 0.994012 0.109270 0.000000
vn 0.994012 0.109270 0.000000
vn 0.994012 0.109270 0.000000
vn 0.994012 0.109270 0.000000
s 1
g pCube1
usemtl lambert5SG
f 1/27/1 2/2/2 4/4/3 3/3/4
s off
f 17/23/5 18/24/6 19/25/7 20/26/8
f 5/5/9 6/6/10 8/8/11 7/7/12
f 7/7/13 8/8/14 2/10/15 1/9/16
f 2/29/17 8/11/18 6/12/19 4/30/20
f 7/13/21 1/1/22 3/28/23 5/14/24
f 13/19/25 14/20/26 15/21/27 16/22/28
s 2
f 4/4/29 6/6/30 11/17/31 10/16/32
f 6/6/30 5/5/33 12/18/34 11/17/31
f 5/5/33 3/3/35 9/15/36 12/18/34
s 1
f 3/3/4 4/4/3 14/20/37 13/19/38
s 3
f 4/4/39 10/16/40 15/21/41 14/20/42
f 10/16/40 9/15/43 16/22/44 15/21/41
f 9/15/43 3/3/45 13/19/46 16/22/44
f 9/15/43 10/16/40 18/24/47 17/23/48
s off
f 10/16/49 11/17/50 19/25/51 18/24/52
f 11/17/53 12/18/54 20/26/55 19/25/56
f 12/18/57 9/15/58 17/23/59 20/26/60
g default
v -5.864023 0.000000 -0.297450
v 5.014164 0.000000 -0.297450
v -5.864023 0.000000 -0.000000
v 5.014164 0.000000 -0.000000
v -6.308054 4.365417 -0.000000
v 5.727319 5.139293 -0.000000
v -6.308054 4.365417 -0.297450
v 5.727319 5.139293 -0.297450
v -5.476244 0.086659 0.016577
v 4.626385 0.086659 0.016577
v 5.339540 4.899809 0.016577
v -5.920275 4.125933 0.016577
v -5.864023 -0.000650 1.138397
v 5.014164 -0.000650 1.138397
v 5.003686 0.086008 1.137839
v -5.871839 0.086008 1.137839
v -5.476244 0.086659 -0.111112
v 4.626385 0.086659 -0.111112
v 5.339540 4.899809 -0.111112
v -5.920275 4.125933 -0.111112
vt 0.001702 0.003134
vt 0.705525 0.229265
vt 0.115606 0.251593
vt 0.700208 0.239988
vt 0.094072 0.519795
vt 0.746699 0.544017
vt 0.093512 0.535846
vt 0.746035 0.560076
vt 0.093782 0.772669
vt 0.678755 0.832168
vt 0.088490 0.994901
vt 0.054863 0.995420
vt 0.001490 0.997353
vt 0.048544 0.998008
vt 0.140012 0.285060
vt 0.677117 0.271835
vt 0.725062 0.531343
vt 0.115297 0.506000
vt 0.130330 0.262268
vt 0.687332 0.253378
vt 0.682755 0.257852
vt 0.136023 0.271053
vt 0.141971 0.290022
vt 0.675089 0.276760
vt 0.723063 0.527007
vt 0.117517 0.501197
vt 0.115606 0.001992
vt 0.048085 0.002980
vt 0.088570 0.002753
vt 0.054904 0.003151
vn 0.000000 -1.000000 0.000000
vn 0.000000 -1.000000 0.000000
vn 0.000000 -1.000000 -0.000286
vn 0.000000 -1.000000 -0.000286
vn 0.000000 0.000000 1.000000
vn 0.000000 0.000000 1.000000
vn 0.000000 0.000000 1.000000
vn 0.000000 0.000000 1.000000
vn -0.064168 0.997939 0.000000
vn -0.064168 0.997939 0.000000
vn -0.064168 0.997939 0.000000
vn -0.064168 0.997939 0.000000
vn 0.000000 0.000000 -1.000000
vn 0.000000 0.000000 -1.000000
vn 0.000000 0.000000 -1.000000
vn 0.000000 0.000000 -1.000000
vn 0.990509 -0.137448 0.000000
vn 0.990509 -0.137448 0.000000
vn 0.990509 -0.137448 0.000000
vn 0.990509 -0.137448 0.000000
vn -0.994867 -0.101194 0.000000
vn -0.994867 -0.101194 0.000000
vn -0.994867 -0.101194 0.000000
vn -0.994867 -0.101194 0.000000
vn 0.000000 0.006435 0.999979
vn 0.000000 0.006435 0.999979
vn 0.000000 0.006435 0.999979
vn 0.000000 0.006435 0.999979
vn 0.043947 -0.006298 0.999014
vn 0.019699 0.031409 0.999312
vn 0.019699 0.031409 0.999312
vn 0.043947 -0.006298 0.999014
vn -0.024123 0.032251 0.999189
vn -0.024123 0.032251 0.999189
vn -0.043615 -0.004609 0.999038
vn -0.043615 -0.004609 0.999038
vn 0.000000 -1.000000 -0.000571
vn 0.000000 -1.000000 -0.000571
vn 0.395961 0.915922 -0.065587
vn 0.134525 0.990664 -0.022086
vn 0.202280 0.978765 -0.033210
vn 0.395961 0.915922 -0.065587
vn -0.140023 0.989854 -0.024138
vn -0.210594 0.976899 -0.036304
vn -0.411449 0.908624 -0.071509
vn -0.411449 0.908624 -0.071509
vn 0.000000 1.000000 0.000000
vn 0.000000 1.000000 0.000000
vn -0.989201 0.146568 0.000000
vn -0.989201 0.146568 0.000000
vn -0.989201 0.146568 0.000000
vn -0.989201 0.146568 0.000000
vn 0.068567 -0.997647 0.000000
vn 0.068567 -0.997647 0.000000
vn 0.068567 -0.997647 0.000000
vn 0.068567 -0.997647 0.000000
vn 0.994012 0.109270 0.000000
vn 0.994012 0.109270 0.000000
vn 0.994012 0.109270 0.000000
vn 0.994012 0.109270 0.000000
s 1
g pCube3
usemtl initialShadingGroup
f 21/57/61 22/32/62 24/34/63 23/33/64
s off
f 37/53/65 38/54/66 39/55/67 40/56/68
f 25/35/69 26/36/70 28/38/71 27/37/72
f 27/37/73 28/38/74 22/40/75 21/39/76
f 22/59/77 28/41/78 26/42/79 24/60/80
f 27/43/81 21/31/82 23/58/83 25/44/84
f 33/49/85 34/50/86 35/51/87 36/52/88
s 2
f 24/34/89 26/36/90 31/47/91 30/46/92
f 26/36/90 25/35/93 32/48/94 31/47/91
f 25/35/93 23/33/95 29/45/96 32/48/94
s 1
f 23/33/64 24/34/63 34/50/97 33/49/98
s 3
f 24/34/99 30/46/100 35/51/101 34/50/102
f 30/46/100 29/45/103 36/52/104 35/51/101
f 29/45/103 23/33/105 33/49/106 36/52/104
f 29/45/103 30/46/100 38/54/107 37/53/108
s off
f 30/46/109 31/47/110 39/55/111 38/54/112
f 31/47/113 32/48/114 40/56/115 39/55/116
f 32/48/117 29/45/118 37/53/119 40/56/120
g default
v -5.864023 0.000000 -0.297450
v 5.014164 0.000000 -0.297450
v -5.864023 0.000000 -0.000000
v 5.014164 0.000000 -0.000000
v -6.308054 4.365417 -0.000000
v 5.727319 5.139293 -0.000000
v -6.308054 4.365417 -0.297450
v 5.727319 5.139293 -0.297450
v -5.476244 0.086659 0.016577
v 4.626385 0.086659 0.016577
v 5.339540 4.899809 0.016577
v -5.920275 4.125933 0.016577
v -5.864023 -0.000650 1.138397
v 5.014164 -0.000650 1.138397
v 5.003686 0.086008 1.137839
v -5.871839 0.086008 1.137839
v -5.476244 0.086659 -0.111112
v 4.626385 0.086659 -0.111112
v 5.339540 4.899809 -0.111112
v -5.920275 4.125933 -0.111112
vt 0.001702 0.003134
vt 0.904211 0.010965
vt 0.123240 0.076151
vt 0.898056 0.028743
vt 0.098614 0.642521
vt 0.992658 0.505728
vt 0.098093 0.661316
vt 0.986950 0.549874
vt 0.102125 0.916464
vt 0.917620 0.996484
vt 0.088490 0.994901
vt 0.054863 0.995420
vt 0.001490 0.997353
vt 0.048544 0.998008
vt 0.156319 0.128921
vt 0.870008 0.081866
vt 0.955933 0.503694
vt 0.127238 0.486132
vt 0.142997 0.092640
vt 0.882083 0.051239
vt 0.876373 0.058765
vt 0.150735 0.106527
vt 0.159028 0.136828
vt 0.867707 0.090003
vt 0.952846 0.496684
vt 0.130164 0.478304
vt 0.124011 0.006575
vt 0.048085 0.002980
vt 0.088570 0.002753
vt 0.054904 0.003151
vn 0.000000 -1.000000 0.000000
vn 0.000000 -1.000000 0.000000
vn 0.000000 -1.000000 -0.000286
vn 0.000000 -1.000000 -0.000286
vn 0.000000 0.000000 1.000000
vn 0.000000 0.000000 1.000000
vn 0.000000 0.000000 1.000000
vn 0.000000 0.000000 1.000000
vn -0.064168 0.997939 0.000000
vn -0.064168 0.997939 0.000000
vn -0.064168 0.997939 0.000000
vn -0.064168 0.997939 0.000000
vn 0.000000 0.000000 -1.000000
vn 0.000000 0.000000 -1.000000
vn 0.000000 0.000000 -1.000000
vn 0.000000 0.000000 -1.000000
vn 0.990509 -0.137448 0.000000
vn 0.990509 -0.137448 0.000000
vn 0.990509 -0.137448 0.000000
vn 0.990509 -0.137448 0.000000
vn -0.994867 -0.101194 0.000000
vn -0.994867 -0.101194 0.000000
vn -0.994867 -0.101194 0.000000
vn -0.994867 -0.101194 0.000000
vn 0.000000 0.006435 0.999979
vn 0.000000 0.006435 0.999979
vn 0.000000 0.006435 0.999979
vn 0.000000 0.006435 0.999979
vn 0.043947 -0.006298 0.999014
vn 0.019699 0.031409 0.999312
vn 0.019699 0.031409 0.999312
vn 0.043947 -0.006298 0.999014
vn -0.024123 0.032251 0.999189
vn -0.024123 0.032251 0.999189
vn -0.043615 -0.004609 0.999038
vn -0.043615 -0.004609 0.999038
vn 0.000000 -1.000000 -0.000571
vn 0.000000 -1.000000 -0.000571
vn 0.395961 0.915922 -0.065587
vn 0.134525 0.990664 -0.022086
vn 0.202280 0.978765 -0.033210
vn 0.395961 0.915922 -0.065587
vn -0.140023 0.989854 -0.024138
vn -0.210594 0.976899 -0.036304
vn -0.411449 0.908624 -0.071509
vn -0.411449 0.908624 -0.071509
vn 0.000000 1.000000 0.000000
vn 0.000000 1.000000 0.000000
vn -0.989201 0.146568 0.000000
vn -0.989201 0.146568 0.000000
vn -0.989201 0.146568 0.000000
vn -0.989201 0.146568 0.000000
vn 0.068567 -0.997647 0.000000
vn 0.068567 -0.997647 0.000000
vn 0.068567 -0.997647 0.000000
vn 0.068567 -0.997647 0.000000
vn 0.994012 0.109270 0.000000
vn 0.994012 0.109270 0.000000
vn 0.994012 0.109270 0.000000
vn 0.994012 0.109270 0.000000
s 1
g pCube4
usemtl initialShadingGroup
f 41/87/121 42/62/122 44/64/123 43/63/124
s off
f 57/83/125 58/84/126 59/85/127 60/86/128
f 45/65/129 46/66/130 48/68/131 47/67/132
f 47/67/133 48/68/134 42/70/135 41/69/136
f 42/89/137 48/71/138 46/72/139 44/90/140
f 47/73/141 41/61/142 43/88/143 45/74/144
f 53/79/145 54/80/146 55/81/147 56/82/148
s 2
f 44/64/149 46/66/150 51/77/151 50/76/152
f 46/66/150 45/65/153 52/78/154 51/77/151
f 45/65/153 43/63/155 49/75/156 52/78/154
s 1
f 43/63/124 44/64/123 54/80/157 53/79/158
s 3
f 44/64/159 50/76/160 55/81/161 54/80/162
f 50/76/160 49/75/163 56/82/164 55/81/161
f 49/75/163 43/63/165 53/79/166 56/82/164
f 49/75/163 50/76/160 58/84/167 57/83/168
s off
f 50/76/169 51/77/170 59/85/171 58/84/172
f 51/77/173 52/78/174 60/86/175 59/85/176
f 52/78/177 49/75/178 57/83/179 60/86/180
