# This file uses centimeters as units for non-parametric coordinates.

mtllib window.mtl
g default
v 0.476549 0.103177 4.799109
v 11.883124 0.103176 4.799109
v 0.476549 11.721014 4.799109
v 11.883124 11.721013 4.799109
v 0.476549 11.721013 3.686959
v 11.883123 11.721010 3.686959
v 0.476549 0.103177 3.686959
v 11.883123 0.103175 3.686959
v 2.499570 2.163667 4.589350
v 9.860101 2.163665 4.589350
v 9.860101 9.660523 4.589350
v 2.499570 9.660525 4.589350
v 0.946354 0.581684 5.125818
v 11.413319 0.581683 5.125819
v 11.413319 11.242506 5.125819
v 0.946354 11.242510 5.125819
v 1.102956 3.326642 5.234721
v 1.102956 8.497551 5.234722
v 8.718276 0.741185 5.234722
v 3.641396 0.741186 5.234721
v 11.256716 8.497549 5.234722
v 11.256716 3.326640 5.234722
v 3.641396 11.083006 5.234722
v 8.718276 11.083004 5.234722
v 1.341055 0.983696 5.198244
v 1.341056 10.840495 5.198247
v 11.018617 0.983694 5.198247
v 11.018617 10.840493 5.198247
v 6.179835 5.912094 4.589350
v 6.179835 2.163665 4.589350
v 9.860101 5.912094 4.589350
v 6.179835 9.660523 4.589350
v 2.499570 5.912096 4.589350
v 1.917721 1.571042 5.109902
v 2.164088 1.821971 4.966560
v 10.441952 1.571039 5.109902
v 10.195584 1.821969 4.966561
v 10.441952 10.253148 5.109902
v 10.195584 10.002217 4.966560
v 1.917721 10.253149 5.109902
v 2.164088 10.002219 4.966560
v 2.775590 2.444799 5.040992
v 2.775590 5.630963 5.040992
v 5.903815 2.444797 5.040992
v 5.903815 5.630963 5.040992
v 6.455855 2.444797 5.040992
v 9.584082 2.444797 5.040992
v 9.584082 5.630962 5.040992
v 6.455855 5.630963 5.040992
v 9.584082 6.193225 5.040992
v 9.584082 9.379391 5.040992
v 6.455855 9.379391 5.040992
v 6.455855 6.193226 5.040992
v 2.775590 9.379394 5.040992
v 5.903815 9.379391 5.040992
v 2.775590 6.193228 5.040992
v 5.903815 6.193227 5.040992
v 2.984138 2.657210 4.791511
v 2.984138 5.418553 4.791511
v 5.695265 2.657208 4.791511
v 5.695265 5.418552 4.791511
v 6.664404 2.657208 4.791511
v 9.375534 2.657208 4.791511
v 9.375534 5.418551 4.791511
v 6.664404 5.418552 4.791511
v 9.375534 6.405636 4.791511
v 9.375534 9.166979 4.791511
v 6.664404 9.166979 4.791511
v 6.664404 6.405637 4.791511
v 2.984138 9.166982 4.791511
v 5.695265 9.166980 4.791511
v 2.984138 6.405639 4.791511
v 5.695265 6.405638 4.791511
vt 0.009092 0.000000
vt 0.990908 0.000000
vt 0.990908 1.000000
vt 0.009092 1.000000
vn 0.000000 0.000000 1.000000
vn 0.000000 0.000000 1.000000
vn 0.000000 0.000000 1.000000
vn 0.000000 0.000000 1.000000
vn 0.000000 1.000000 -0.000002
vn 0.000000 1.000000 -0.000002
vn 0.000000 1.000000 -0.000002
vn 0.000000 1.000000 -0.000002
vn 0.000000 0.000000 -1.000000
vn 0.000000 0.000000 -1.000000
vn 0.000000 0.000000 -1.000000
vn 0.000000 0.000000 -1.000000
vn -0.000000 -1.000000 0.000000
vn -0.000000 -1.000000 0.000000
vn -0.000000 -1.000000 0.000000
vn -0.000000 -1.000000 0.000000
vn 1.000000 0.000000 -0.000001
vn 1.000000 0.000000 -0.000001
vn 1.000000 0.000000 -0.000001
vn 1.000000 0.000000 -0.000001
vn -1.000000 0.000000 0.000000
vn -1.000000 0.000000 0.000000
vn -1.000000 0.000000 0.000000
vn -1.000000 0.000000 0.000000
vn -0.000477 -0.232514 0.972593
vn 0.056562 0.058760 0.996668
vn -0.236717 -0.000431 0.971579
vn -0.302980 -0.297212 0.905466
vn 0.000000 0.639621 0.768690
vn 0.000000 0.639621 0.768691
vn 0.000000 0.741135 0.671356
vn 0.000000 0.741135 0.671356
vn 0.000000 0.741135 0.671356
vn -0.645671 0.000000 0.763615
vn -0.645671 0.000000 0.763615
vn -0.747227 0.000000 0.664568
vn -0.747227 0.000000 0.664568
vn -0.747227 0.000000 0.664568
vn -0.000000 -0.639621 0.768690
vn -0.000000 -0.639621 0.768690
vn -0.000000 -0.741136 0.671355
vn -0.000000 -0.741136 0.671355
vn -0.000000 -0.741136 0.671355
vn 0.645673 -0.000000 0.763614
vn 0.645673 -0.000000 0.763614
vn 0.747229 0.000000 0.664567
vn 0.747229 0.000000 0.664567
vn 0.747229 0.000000 0.664567
vn 0.236716 -0.000430 0.971579
vn -0.056562 0.058760 0.996668
vn 0.000477 -0.232514 0.972593
vn 0.302980 -0.297212 0.905466
vn -0.106247 0.103679 0.988920
vn 0.106247 0.103679 0.988920
vn -0.000000 -0.563873 0.825862
vn -0.000000 -0.563873 0.825862
vn 0.000477 0.232514 0.972593
vn -0.056562 -0.058760 0.996668
vn 0.236716 0.000430 0.971579
vn 0.302980 0.297212 0.905466
vn -0.106247 -0.103680 0.988920
vn 0.570933 0.000000 0.820997
vn 0.570933 0.000000 0.820997
vn 0.056562 -0.058760 0.996668
vn -0.000477 0.232514 0.972593
vn -0.302979 0.297212 0.905466
vn -0.236717 0.000430 0.971579
vn 0.106247 -0.103680 0.988920
vn 0.000000 0.563873 0.825862
vn 0.000000 0.563873 0.825862
vn -0.570933 -0.000000 0.820997
vn -0.570933 -0.000000 0.820997
vn 0.000000 0.000000 1.000000
vn 0.000000 0.000000 1.000000
vn 0.000000 0.000000 1.000000
vn 0.000000 0.000000 1.000000
vn -0.000000 0.000000 1.000000
vn -0.000000 0.000000 1.000000
vn -0.000000 0.000000 1.000000
vn -0.000000 0.000000 1.000000
vn 0.000000 0.000000 1.000000
vn 0.000000 0.000000 1.000000
vn 0.000000 0.000000 1.000000
vn 0.000000 0.000000 1.000000
vn -0.853268 0.000000 0.521473
vn -0.853268 0.000000 0.521473
vn -0.853268 0.000000 0.521473
vn -0.853268 0.000000 0.521473
vn -0.000000 -0.848963 0.528452
vn -0.000000 -0.848963 0.528452
vn -0.000000 -0.848963 0.528452
vn -0.000000 -0.848963 0.528452
vn 0.853268 0.000000 0.521473
vn 0.853268 0.000000 0.521473
vn 0.853268 0.000000 0.521473
vn 0.853268 0.000000 0.521473
vn 0.000000 0.848964 0.528451
vn 0.000000 0.848964 0.528451
vn 0.000000 0.848964 0.528451
vn 0.000000 0.848964 0.528451
vn 0.000000 -0.848964 0.528452
vn 0.000000 -0.848964 0.528452
vn 0.000000 -0.848964 0.528452
vn 0.000000 -0.848964 0.528452
vn 0.853268 0.000000 0.521472
vn 0.853268 0.000000 0.521472
vn 0.853268 0.000000 0.521472
vn 0.853268 0.000000 0.521472
vn 0.000000 0.848964 0.528451
vn 0.000000 0.848964 0.528451
vn 0.000000 0.848964 0.528451
vn 0.000000 0.848964 0.528451
vn -0.853268 0.000000 0.521472
vn -0.853268 0.000000 0.521472
vn -0.853268 0.000000 0.521472
vn -0.853268 0.000000 0.521472
vn 0.853268 0.000000 0.521472
vn 0.853268 0.000000 0.521472
vn 0.853268 0.000000 0.521472
vn 0.853268 0.000000 0.521472
vn 0.000000 0.848964 0.528451
vn 0.000000 0.848964 0.528451
vn 0.000000 0.848964 0.528451
vn 0.000000 0.848964 0.528451
vn -0.853268 0.000000 0.521472
vn -0.853268 0.000000 0.521472
vn -0.853268 0.000000 0.521472
vn -0.853268 0.000000 0.521472
vn -0.000000 -0.848964 0.528451
vn -0.000000 -0.848964 0.528451
vn -0.000000 -0.848964 0.528451
vn -0.000000 -0.848964 0.528451
vn 0.000001 0.848964 0.528451
vn 0.000001 0.848964 0.528451
vn 0.000001 0.848964 0.528451
vn 0.000001 0.848964 0.528451
vn -0.853268 0.000000 0.521473
vn -0.853268 0.000000 0.521473
vn -0.853268 0.000000 0.521473
vn -0.853268 0.000000 0.521473
vn -0.000000 -0.848963 0.528452
vn -0.000000 -0.848963 0.528452
vn -0.000000 -0.848963 0.528452
vn -0.000000 -0.848963 0.528452
vn 0.853268 0.000000 0.521473
vn 0.853268 0.000000 0.521473
vn 0.853268 0.000000 0.521473
vn 0.853268 0.000000 0.521473
vn 0.767242 0.000000 0.641358
vn 0.767242 0.000000 0.641358
vn 0.767242 0.000000 0.641358
vn 0.767242 0.000000 0.641358
vn 0.000000 0.761410 0.648271
vn 0.000000 0.761410 0.648271
vn 0.000000 0.761410 0.648271
vn 0.000000 0.761410 0.648271
vn -0.767240 0.000000 0.641360
vn -0.767240 0.000000 0.641360
vn -0.767240 0.000000 0.641360
vn -0.767240 0.000000 0.641360
vn -0.000000 -0.761410 0.648271
vn -0.000000 -0.761410 0.648271
vn -0.000000 -0.761410 0.648271
vn -0.000000 -0.761410 0.648271
vn 0.000000 0.761410 0.648271
vn 0.000000 0.761410 0.648271
vn 0.000000 0.761410 0.648271
vn 0.000000 0.761410 0.648271
vn -0.767243 0.000000 0.641357
vn -0.767243 0.000000 0.641357
vn -0.767243 0.000000 0.641357
vn -0.767243 0.000000 0.641357
vn -0.000000 -0.761409 0.648272
vn -0.000000 -0.761409 0.648272
vn -0.000000 -0.761409 0.648272
vn -0.000000 -0.761409 0.648272
vn 0.767241 0.000000 0.641359
vn 0.767241 0.000000 0.641359
vn 0.767241 0.000000 0.641359
vn 0.767241 0.000000 0.641359
vn -0.767243 0.000000 0.641357
vn -0.767243 0.000000 0.641357
vn -0.767243 0.000000 0.641357
vn -0.767243 0.000000 0.641357
vn 0.000000 -0.761407 0.648274
vn 0.000000 -0.761408 0.648274
vn 0.000000 -0.761408 0.648274
vn 0.000000 -0.761408 0.648274
vn 0.767241 0.000000 0.641359
vn 0.767241 0.000000 0.641359
vn 0.767241 0.000000 0.641359
vn 0.767241 0.000000 0.641359
vn 0.000000 0.761409 0.648272
vn 0.000000 0.761409 0.648272
vn 0.000000 0.761409 0.648272
vn 0.000000 0.761409 0.648272
vn -0.000001 -0.761409 0.648272
vn -0.000001 -0.761409 0.648272
vn -0.000001 -0.761409 0.648272
vn -0.000001 -0.761409 0.648272
vn 0.767242 0.000000 0.641358
vn 0.767242 0.000000 0.641358
vn 0.767242 0.000000 0.641358
vn 0.767242 0.000000 0.641358
vn 0.000000 0.761409 0.648272
vn 0.000000 0.761409 0.648272
vn 0.000000 0.761409 0.648272
vn 0.000000 0.761409 0.648272
vn -0.767240 0.000000 0.641360
vn -0.767240 0.000000 0.641360
vn -0.767240 0.000000 0.641360
vn -0.767240 0.000000 0.641360
s off
g pCube1
usemtl lambert3SG
f 59//1 58//2 60//3 61//4
usemtl lambert5SG
f 3//5 4//6 6//7 5//8
f 5//9 6//10 8//11 7//12
f 7//13 8//14 2//15 1//16
f 2//17 8//18 6//19 4//20
f 7//21 1//22 3//23 5//24
s 1
usemtl lambert2SG
f 20//25 25//26 17//27 13//28
usemtl lambert5SG
f 35//29 37//30 10//31 30//32 9//33
f 37//34 39//35 11//36 31//37 10//38
f 39//39 41//40 12//41 32//42 11//43
f 41//44 35//45 9//46 33//47 12//48
usemtl lambert2SG
f 22//49 27//50 19//51 14//52
usemtl lambert5SG
f 36//53 34//54 25//26 20//25 19//51 27//50
f 1//55 2//56 14//52 19//51 20//25 13//28
usemtl lambert2SG
f 24//57 28//58 21//59 15//60
usemtl lambert5SG
f 38//61 36//53 27//50 22//49 21//59 28//58
f 2//62 4//63 15//60 21//59 22//49 14//52
usemtl lambert2SG
f 26//64 23//65 16//66 18//67
usemtl lambert5SG
f 40//68 38//61 28//58 24//57 23//65 26//64
f 4//69 3//70 16//66 23//65 24//57 15//60
f 3//71 1//72 13//28 17//27 18//67 16//66
f 17//27 25//26 34//54 40//68 26//64 18//67
s off
usemtl lambert4SG
f 62/1/73 63/2/74 64/3/75 65/4/76
usemtl lambert3SG
f 66//77 67//78 68//79 69//80
f 71//81 70//82 72//83 73//84
s 1
usemtl lambert2SG
f 35//29 34//54 36//53 37//30
f 34//54 35//45 41//44 40//68
f 37//34 36//53 38//61 39//35
f 39//39 38//61 40//68 41//40
s off
usemtl lambert6SG
f 33//85 9//86 42//87 43//88
f 9//89 30//90 44//91 42//92
f 30//93 29//94 45//95 44//96
f 29//97 33//98 43//99 45//100
f 30//101 10//102 47//103 46//104
f 10//105 31//106 48//107 47//108
f 31//109 29//110 49//111 48//112
f 29//113 30//114 46//115 49//116
f 31//117 11//118 51//119 50//120
f 11//121 32//122 52//123 51//124
f 32//125 29//126 53//127 52//128
f 29//129 31//130 50//131 53//132
f 32//133 12//134 54//135 55//136
f 12//137 33//138 56//139 54//140
f 33//141 29//142 57//143 56//144
f 29//145 32//146 55//147 57//148
usemtl lambert7SG
f 43//149 42//150 58//151 59//152
f 42//153 44//154 60//155 58//156
f 44//157 45//158 61//159 60//160
f 45//161 43//162 59//163 61//164
f 46//165 47//166 63//167 62//168
f 47//169 48//170 64//171 63//172
f 48//173 49//174 65//175 64//176
f 49//177 46//178 62//179 65//180
f 50//181 51//182 67//183 66//184
f 51//185 52//186 68//187 67//188
f 52//189 53//190 69//191 68//192
f 53//193 50//194 66//195 69//196
f 55//197 54//198 70//199 71//200
f 54//201 56//202 72//203 70//204
f 56//205 57//206 73//207 72//208
f 57//209 55//210 71//211 73//212
